<svg width="32.000000" height="32.000000" viewBox="0 0 32 32" fill="none" xmlns="http://www.w3.org/2000/svg" xmlns:xlink="http://www.w3.org/1999/xlink">
	<desc>
			Created with Pixso.
	</desc>
	<defs>
		<clipPath id="clip2_2153">
			<rect id="fire 1" width="22.000000" height="22.000000" transform="translate(5.000000 5.000000)" fill="white" fill-opacity="0"/>
		</clipPath>
		<clipPath id="clip2_2154">
			<rect id="Summary icons" rx="16.000000" width="32.000000" height="32.000000" fill="white" fill-opacity="0"/>
		</clipPath>
	</defs>
	<rect id="Summary icons" rx="16.000000" width="32.000000" height="32.000000" fill="#F45763" fill-opacity="1.000000"/>
	<g clip-path="url(#clip2_2154)">
		<rect id="fire 1" width="22.000000" height="22.000000" transform="translate(5.000000 5.000000)" fill="#FFFFFF" fill-opacity="0"/>
		<g clip-path="url(#clip2_2153)">
			<path id="Vector" d="M17.75 6C13.77 8.45 14.25 15.37 14.25 15.37C14.25 15.37 12.5 14.75 12.5 11.93C10.41 13.23 9 15.72 9 18.5C9 22.64 12.13 26 16 26C19.86 26 23 22.64 23 18.5C23 12.4 17.75 11.15 17.75 6ZM16.61 23.41C15.2 23.79 13.78 22.87 13.43 21.36C13.08 19.86 13.93 18.33 15.34 17.95C18.74 17.05 19.16 15 19.16 15C19.16 15 20.85 22.28 16.61 23.41Z" fill="#FFFFFF" fill-opacity="1.000000" fill-rule="nonzero"/>
		</g>
	</g>
</svg>
