<svg width="32.000000" height="32.000000" viewBox="0 0 32 32" fill="none" xmlns="http://www.w3.org/2000/svg" xmlns:xlink="http://www.w3.org/1999/xlink">
	<desc>
			Created with Pixso.
	</desc>
	<defs>
		<clipPath id="clip2_2167">
			<rect id="clock 1" width="16.000000" height="16.000000" transform="translate(8.000000 8.000000)" fill="white" fill-opacity="0"/>
		</clipPath>
		<clipPath id="clip2_2166">
			<rect id="Property 1=time" rx="16.000000" width="32.000000" height="32.000000" fill="white" fill-opacity="0"/>
		</clipPath>
	</defs>
	<rect id="Property 1=time" rx="16.000000" width="32.000000" height="32.000000" fill="#6B56F5" fill-opacity="1.000000"/>
	<g clip-path="url(#clip2_2166)">
		<rect id="clock 1" width="16.000000" height="16.000000" transform="translate(8.000000 8.000000)" fill="#FFFFFF" fill-opacity="0"/>
		<g clip-path="url(#clip2_2167)">
			<path id="Vector" d="M16 8C11.58 8 8 11.58 8 16C8 20.41 11.58 24 16 24C20.41 24 24 20.41 24 16C24 11.58 20.41 8 16 8ZM19.8 20.13C19.67 20.26 19.5 20.33 19.33 20.33C19.16 20.33 18.99 20.26 18.86 20.13L15.52 16.8C15.4 16.68 15.33 16.51 15.33 16.33L15.33 12C15.33 11.63 15.63 11.33 16 11.33C16.36 11.33 16.66 11.63 16.66 12L16.66 16.05L19.8 19.19C20.06 19.45 20.06 19.87 19.8 20.13Z" fill="#FFFFFF" fill-opacity="1.000000" fill-rule="nonzero"/>
		</g>
	</g>
</svg>
