<svg width="32.000000" height="32.000000" viewBox="0 0 32 32" fill="none" xmlns="http://www.w3.org/2000/svg" xmlns:xlink="http://www.w3.org/1999/xlink">
	<desc>
			Created with Pixso.
	</desc>
	<defs>
		<clipPath id="clip2_2159">
			<rect id="scale (1) 1" width="16.000000" height="16.000000" transform="translate(8.000000 8.000000)" fill="white" fill-opacity="0"/>
		</clipPath>
		<clipPath id="clip2_2158">
			<rect id="Property 1=weight" rx="16.000000" width="32.000000" height="32.000000" fill="white" fill-opacity="0"/>
		</clipPath>
	</defs>
	<rect id="Property 1=weight" rx="16.000000" width="32.000000" height="32.000000" fill="#F58F56" fill-opacity="1.000000"/>
	<g clip-path="url(#clip2_2158)">
		<rect id="scale (1) 1" width="16.000000" height="16.000000" transform="translate(8.000000 8.000000)" fill="#FFFFFF" fill-opacity="0"/>
		<g clip-path="url(#clip2_2159)">
			<path id="Vector" d="M23.44 9.52C23.03 9.04 22.48 8.77 21.87 8.84L10.07 8.84C8.84 8.84 7.82 10 8.02 11.23L9.66 21.46C9.79 22.48 10.68 23.16 11.7 23.16L20.3 23.16C21.32 23.16 22.21 22.41 22.35 21.46L23.98 11.23C24.05 10.61 23.85 10 23.44 9.52ZM17.43 17.71C17.23 17.5 17.02 17.36 16.75 17.3L17.3 14.57L15.93 14.3L15.32 17.23C15.05 17.3 14.77 17.5 14.5 17.71L11.09 14.36C13.75 11.7 18.05 11.7 20.71 14.36L17.43 17.71Z" fill="#FFFFFF" fill-opacity="1.000000" fill-rule="nonzero"/>
		</g>
	</g>
</svg>
